<?xml version="1.0" encoding="UTF-8"?>
<svg xmlns="http://www.w3.org/2000/svg" xmlns:xlink="http://www.w3.org/1999/xlink" width="382px" height="326px" viewBox="0 0 200 160" version="1.1">
<defs>
<filter id="alpha" filterUnits="objectBoundingBox" x="0%" y="0%" width="100%" height="100%">
  <feColorMatrix type="matrix" in="SourceGraphic" values="0 0 0 0 1 0 0 0 0 1 0 0 0 0 1 0 0 0 1 0"/>
</filter>
<mask id="mask0">
  <g filter="url(#alpha)">
<rect x="0" y="0" width="200" height="160" style="fill:rgb(0%,0%,0%);fill-opacity:0.988235;stroke:none;"/>
  </g>
</mask>
<clipPath id="clip1">
  <rect x="0" y="0" width="200" height="160"/>
</clipPath>
<g id="surface5" clip-path="url(#clip1)">
<path style=" stroke:none;fill-rule:evenodd;fill:rgb(99.607843%,100%,99.607843%);fill-opacity:1;" d="M 128.785156 68.652344 C 129.355469 68.644531 129.921875 68.652344 130.492188 68.671875 C 131.933594 68.789062 133.015625 69.34375 133.742188 70.332031 C 134.265625 71.378906 134.21875 72.40625 133.59375 73.417969 C 132.953125 74.175781 132.070312 74.636719 130.933594 74.804688 C 129.933594 74.949219 128.941406 74.921875 127.953125 74.726562 C 126.410156 74.363281 125.507812 73.550781 125.242188 72.285156 C 125.011719 70.1875 126.191406 68.976562 128.785156 68.652344 Z M 128.785156 68.652344 "/>
</g>
<mask id="mask1">
  <g filter="url(#alpha)">
<rect x="0" y="0" width="200" height="160" style="fill:rgb(0%,0%,0%);fill-opacity:0.988235;stroke:none;"/>
  </g>
</mask>
<clipPath id="clip2">
  <rect x="0" y="0" width="200" height="160"/>
</clipPath>
<g id="surface8" clip-path="url(#clip2)">
<path style=" stroke:none;fill-rule:evenodd;fill:rgb(86.27451%,66.666667%,26.666667%);fill-opacity:1;" d="M 171.851562 68.652344 C 172.90625 68.574219 173.929688 68.671875 174.925781 68.945312 C 176.644531 69.617188 177.382812 70.714844 177.148438 72.246094 C 176.839844 73.679688 175.789062 74.53125 174 74.804688 C 172.945312 74.957031 171.90625 74.917969 170.875 74.6875 C 168.929688 74.085938 168.074219 72.945312 168.3125 71.269531 C 168.554688 69.964844 169.476562 69.140625 171.070312 68.789062 C 171.335938 68.742188 171.597656 68.695312 171.851562 68.652344 Z M 171.851562 68.652344 "/>
</g>
<mask id="mask2">
  <g filter="url(#alpha)">
<rect x="0" y="0" width="200" height="160" style="fill:rgb(0%,0%,0%);fill-opacity:0.996078;stroke:none;"/>
  </g>
</mask>
<clipPath id="clip3">
  <rect x="0" y="0" width="200" height="160"/>
</clipPath>
<g id="surface11" clip-path="url(#clip3)">
<path style=" stroke:none;fill-rule:evenodd;fill:rgb(99.607843%,100%,99.607843%);fill-opacity:1;" d="M 26 69.746094 C 32.332031 69.738281 38.664062 69.746094 44.996094 69.765625 C 47.371094 69.910156 48.40625 70.933594 48.09375 72.832031 C 47.941406 73.816406 47.265625 74.433594 46.070312 74.6875 C 45.636719 74.777344 45.199219 74.828125 44.75 74.84375 C 40.097656 74.863281 35.441406 74.871094 30.785156 74.863281 C 30.785156 77.078125 30.785156 79.289062 30.785156 81.503906 C 35.378906 81.484375 39.96875 81.503906 44.554688 81.5625 C 46.296875 81.808594 47.140625 82.640625 47.09375 84.0625 C 47.15625 85.394531 46.375 86.203125 44.75 86.484375 C 44.539062 86.515625 44.328125 86.539062 44.117188 86.5625 C 39.671875 86.582031 35.230469 86.589844 30.785156 86.582031 C 30.792969 89.8125 30.785156 93.039062 30.761719 96.269531 C 30.609375 97.695312 29.671875 98.601562 27.953125 98.984375 C 26.613281 99.222656 25.378906 99.039062 24.242188 98.4375 C 23.453125 97.914062 22.992188 97.242188 22.851562 96.425781 C 22.820312 88.328125 22.820312 80.226562 22.851562 72.128906 C 23.152344 70.695312 24.203125 69.902344 26 69.746094 Z M 26 69.746094 "/>
</g>
<mask id="mask3">
  <g filter="url(#alpha)">
<rect x="0" y="0" width="200" height="160" style="fill:rgb(0%,0%,0%);fill-opacity:0.992157;stroke:none;"/>
  </g>
</mask>
<clipPath id="clip4">
  <rect x="0" y="0" width="200" height="160"/>
</clipPath>
<g id="surface14" clip-path="url(#clip4)">
<path style=" stroke:none;fill-rule:evenodd;fill:rgb(86.27451%,66.666667%,26.666667%);fill-opacity:1;" d="M 143.089844 69.746094 C 149.421875 69.738281 155.753906 69.746094 162.085938 69.765625 C 164.460938 69.910156 165.496094 70.933594 165.1875 72.832031 C 165.03125 73.816406 164.355469 74.433594 163.160156 74.6875 C 162.726562 74.777344 162.289062 74.828125 161.839844 74.84375 C 157.1875 74.863281 152.53125 74.871094 147.875 74.863281 C 147.875 77.078125 147.875 79.289062 147.875 81.503906 C 152.46875 81.484375 157.058594 81.503906 161.644531 81.5625 C 163.382812 81.808594 164.230469 82.640625 164.183594 84.0625 C 164.148438 85.617188 163.15625 86.449219 161.207031 86.5625 C 156.761719 86.582031 152.320312 86.589844 147.875 86.582031 C 147.882812 89.8125 147.875 93.039062 147.851562 96.269531 C 147.699219 97.695312 146.761719 98.601562 145.042969 98.984375 C 143.703125 99.222656 142.46875 99.039062 141.332031 98.4375 C 140.371094 97.777344 139.890625 96.9375 139.890625 95.917969 C 139.84375 87.988281 139.859375 80.058594 139.941406 72.128906 C 140.242188 70.695312 141.292969 69.902344 143.089844 69.746094 Z M 143.089844 69.746094 "/>
</g>
<mask id="mask4">
  <g filter="url(#alpha)">
<rect x="0" y="0" width="200" height="160" style="fill:rgb(0%,0%,0%);fill-opacity:0.992157;stroke:none;"/>
  </g>
</mask>
<clipPath id="clip5">
  <rect x="0" y="0" width="200" height="160"/>
</clipPath>
<g id="surface17" clip-path="url(#clip5)">
<path style=" stroke:none;fill-rule:evenodd;fill:rgb(99.607843%,100%,99.607843%);fill-opacity:1;" d="M 110.375 72.441406 C 110.898438 72.433594 111.417969 72.441406 111.9375 72.460938 C 113.820312 72.679688 114.855469 73.542969 115.039062 75.058594 C 115.0625 76.230469 115.070312 77.402344 115.0625 78.574219 C 116.527344 78.566406 117.992188 78.574219 119.457031 78.59375 C 121.210938 78.742188 122.105469 79.515625 122.144531 80.917969 C 122.144531 82.148438 121.394531 82.898438 119.898438 83.164062 C 119.636719 83.199219 119.378906 83.226562 119.117188 83.242188 C 117.765625 83.261719 116.414062 83.269531 115.0625 83.261719 C 115.054688 86.296875 115.0625 89.328125 115.085938 92.363281 C 115.253906 93.484375 116.027344 94.15625 117.40625 94.375 C 118.285156 94.4375 119.164062 94.5 120.042969 94.570312 C 120.953125 94.664062 121.625 95.019531 122.070312 95.644531 C 122.730469 97.640625 121.777344 98.769531 119.214844 99.023438 C 117.234375 99.085938 115.28125 98.929688 113.355469 98.554688 C 109.578125 97.640625 107.554688 95.605469 107.273438 92.441406 C 107.207031 89.382812 107.179688 86.320312 107.203125 83.261719 C 106.207031 83.277344 105.214844 83.257812 104.222656 83.203125 C 102.304688 82.90625 101.484375 81.972656 101.757812 80.410156 C 101.929688 79.585938 102.507812 79.03125 103.492188 78.75 C 103.792969 78.671875 104.101562 78.621094 104.417969 78.59375 C 105.347656 78.574219 106.273438 78.566406 107.203125 78.574219 C 107.195312 77.453125 107.203125 76.335938 107.226562 75.214844 C 107.367188 73.625 108.414062 72.703125 110.375 72.441406 Z M 110.375 72.441406 "/>
</g>
<mask id="mask5">
  <g filter="url(#alpha)">
<rect x="0" y="0" width="200" height="160" style="fill:rgb(0%,0%,0%);fill-opacity:0.992157;stroke:none;"/>
  </g>
</mask>
<clipPath id="clip6">
  <rect x="0" y="0" width="200" height="160"/>
</clipPath>
<g id="surface20" clip-path="url(#clip6)">
<path style=" stroke:none;fill-rule:evenodd;fill:rgb(99.607843%,100%,99.607843%);fill-opacity:1;" d="M 83.765625 78.144531 C 85.15625 78.03125 86.320312 78.382812 87.257812 79.199219 C 87.515625 79.480469 87.691406 79.792969 87.792969 80.136719 C 87.851562 80.722656 87.886719 81.308594 87.890625 81.894531 C 88.894531 80.113281 90.582031 78.960938 92.945312 78.4375 C 94.300781 78.140625 95.667969 78.089844 97.046875 78.28125 C 98.019531 78.570312 98.597656 79.121094 98.78125 79.941406 C 98.933594 80.675781 98.851562 81.390625 98.535156 82.089844 C 98.265625 82.582031 97.816406 82.925781 97.191406 83.125 C 96.890625 83.222656 96.582031 83.300781 96.265625 83.359375 C 95.113281 83.496094 93.957031 83.613281 92.796875 83.710938 C 90.046875 84.101562 88.523438 85.410156 88.234375 87.636719 C 88.214844 90.566406 88.199219 93.496094 88.183594 96.425781 C 88.050781 97.734375 87.199219 98.578125 85.621094 98.945312 C 84.160156 99.242188 82.8125 99.0625 81.566406 98.398438 C 80.925781 97.960938 80.542969 97.410156 80.421875 96.738281 C 80.386719 91.308594 80.386719 85.878906 80.421875 80.449219 C 80.621094 79.492188 81.28125 78.820312 82.398438 78.4375 C 82.847656 78.300781 83.304688 78.203125 83.765625 78.144531 Z M 83.765625 78.144531 "/>
</g>
<mask id="mask6">
  <g filter="url(#alpha)">
<rect x="0" y="0" width="200" height="160" style="fill:rgb(0%,0%,0%);fill-opacity:0.996078;stroke:none;"/>
  </g>
</mask>
<clipPath id="clip7">
  <rect x="0" y="0" width="200" height="160"/>
</clipPath>
<g id="surface23" clip-path="url(#clip7)">
<path style=" stroke:none;fill-rule:evenodd;fill:rgb(99.607843%,100%,99.607843%);fill-opacity:1;" d="M 129.175781 78.144531 C 130.25 78.074219 131.242188 78.261719 132.152344 78.710938 C 132.933594 79.15625 133.378906 79.761719 133.496094 80.527344 C 133.527344 85.917969 133.527344 91.308594 133.496094 96.699219 C 133.171875 98.027344 132.171875 98.800781 130.492188 99.023438 C 129.125 99.207031 127.890625 98.972656 126.78125 98.320312 C 126.136719 97.828125 125.785156 97.222656 125.734375 96.503906 C 125.683594 91.136719 125.699219 85.773438 125.78125 80.410156 C 126.046875 79.402344 126.789062 78.71875 128.003906 78.359375 C 128.394531 78.265625 128.785156 78.191406 129.175781 78.144531 Z M 129.175781 78.144531 "/>
</g>
<mask id="mask7">
  <g filter="url(#alpha)">
<rect x="0" y="0" width="200" height="160" style="fill:rgb(0%,0%,0%);fill-opacity:0.988235;stroke:none;"/>
  </g>
</mask>
<clipPath id="clip8">
  <rect x="0" y="0" width="200" height="160"/>
</clipPath>
<g id="surface26" clip-path="url(#clip8)">
<path style=" stroke:none;fill-rule:evenodd;fill:rgb(86.27451%,66.666667%,26.666667%);fill-opacity:1;" d="M 172.242188 78.144531 C 173.625 78.046875 174.824219 78.375 175.828125 79.121094 C 176.320312 79.625 176.582031 80.195312 176.609375 80.839844 C 176.660156 86.152344 176.644531 91.464844 176.5625 96.777344 C 176.300781 97.925781 175.460938 98.648438 174.046875 98.945312 C 172.753906 99.203125 171.515625 99.085938 170.335938 98.59375 C 169.308594 98.0625 168.796875 97.300781 168.796875 96.308594 C 168.75 91.035156 168.765625 85.761719 168.847656 80.488281 C 169.054688 79.464844 169.761719 78.769531 170.972656 78.398438 C 171.390625 78.277344 171.8125 78.191406 172.242188 78.144531 Z M 172.242188 78.144531 "/>
</g>
<mask id="mask8">
  <g filter="url(#alpha)">
<rect x="0" y="0" width="200" height="160" style="fill:rgb(0%,0%,0%);fill-opacity:0.996078;stroke:none;"/>
  </g>
</mask>
<clipPath id="clip9">
  <rect x="0" y="0" width="200" height="160"/>
</clipPath>
<g id="surface29" clip-path="url(#clip9)">
<path style=" stroke:none;fill-rule:evenodd;fill:rgb(99.607843%,99.607843%,99.607843%);fill-opacity:1;" d="M 61.890625 78.691406 C 67 78.601562 70.914062 80.269531 73.632812 83.691406 C 75.6875 86.675781 75.914062 89.75 74.316406 92.910156 C 72.46875 96.066406 69.417969 98.027344 65.160156 98.789062 C 59.910156 99.445312 55.65625 98.109375 52.390625 94.785156 C 49.878906 91.808594 49.355469 88.621094 50.828125 85.214844 C 52.425781 82.105469 55.234375 80.054688 59.253906 79.0625 C 60.125 78.875 61.003906 78.75 61.890625 78.691406 Z M 61.890625 78.691406 "/>
</g>
</defs>
<g id="surface1">
<use xlink:href="#surface5" mask="url(#mask0)"/>
<use xlink:href="#surface8" mask="url(#mask1)"/>
<use xlink:href="#surface11" mask="url(#mask2)"/>
<use xlink:href="#surface14" mask="url(#mask3)"/>
<use xlink:href="#surface17" mask="url(#mask4)"/>
<use xlink:href="#surface20" mask="url(#mask5)"/>
<use xlink:href="#surface23" mask="url(#mask6)"/>
<use xlink:href="#surface26" mask="url(#mask7)"/>
<use xlink:href="#surface29" mask="url(#mask8)"/>
<path style=" stroke:none;fill-rule:evenodd;fill:rgb(86.27451%,66.666667%,27.058824%);fill-opacity:1;" d="M 63.355469 88.066406 C 62.914062 88.066406 62.476562 88.066406 62.035156 88.066406 C 62.027344 86.632812 62.035156 85.203125 62.0625 83.769531 C 62.1875 83.570312 62.390625 83.46875 62.671875 83.457031 C 62.875 83.476562 63.070312 83.519531 63.257812 83.59375 C 64.148438 83.917969 65.042969 84.230469 65.941406 84.53125 C 66.296875 84.675781 66.421875 84.90625 66.308594 85.214844 C 66.265625 85.316406 66.191406 85.402344 66.089844 85.46875 C 65.195312 85.789062 64.296875 86.105469 63.402344 86.425781 C 63.355469 86.972656 63.339844 87.519531 63.355469 88.066406 Z M 63.355469 88.066406 "/>
<path style=" stroke:none;fill-rule:evenodd;fill:rgb(6.666667%,11.764706%,20%);fill-opacity:1;" d="M 62.035156 88.066406 C 62.476562 88.066406 62.914062 88.066406 63.355469 88.066406 C 63.789062 87.980469 64.125 88.085938 64.355469 88.378906 C 64.378906 88.886719 64.386719 89.394531 64.378906 89.902344 C 64.964844 89.902344 65.550781 89.902344 66.136719 89.902344 C 66.128906 89.394531 66.136719 88.886719 66.164062 88.378906 C 66.234375 88.28125 66.324219 88.199219 66.429688 88.125 C 67.304688 88.0625 68.183594 88.046875 69.066406 88.085938 C 69.367188 88.15625 69.523438 88.320312 69.53125 88.574219 C 69.910156 90.511719 70.25 92.453125 70.554688 94.394531 C 68.203125 96.4375 65.28125 97.382812 61.792969 97.226562 C 59.03125 96.984375 56.710938 96.054688 54.835938 94.433594 C 54.800781 94.304688 54.800781 94.171875 54.835938 94.042969 C 55.175781 92.109375 55.550781 90.183594 55.957031 88.261719 C 56.042969 88.179688 56.148438 88.121094 56.273438 88.085938 C 57.105469 88.058594 57.933594 88.058594 58.765625 88.085938 C 58.960938 88.113281 59.097656 88.195312 59.179688 88.339844 C 59.203125 88.859375 59.210938 89.382812 59.203125 89.902344 C 59.804688 89.902344 60.410156 89.902344 61.011719 89.902344 C 61.003906 89.394531 61.011719 88.886719 61.035156 88.378906 C 61.09375 88.230469 61.214844 88.132812 61.402344 88.085938 C 61.613281 88.066406 61.824219 88.058594 62.035156 88.066406 Z M 62.035156 88.066406 "/>
</g>
</svg>
